<?xml version="1.0" standalone="no"?><!DOCTYPE svg PUBLIC "-//W3C//DTD SVG 1.1//EN" "http://www.w3.org/Graphics/SVG/1.1/DTD/svg11.dtd"><svg t="1568705115495" class="icon" viewBox="0 0 1024 1024" version="1.1" xmlns="http://www.w3.org/2000/svg" p-id="1334" xmlns:xlink="http://www.w3.org/1999/xlink" width="200" height="200"><defs><style type="text/css"></style></defs><path d="M657.92 335.433h292.06v73.143H181.54v-73.143h293.01V42.862h183.37v292.571zM59.611 995.913c32.915-45.056 56.76-83.675 71.388-115.858 21.943-48.348 33.134-56.54 42.862-129.975 6.582-49.006 10.093-138.24 10.825-267.995h764.489V995.84H805.01c-34.23-31.744-57.344-59.977-69.485-84.773-11.996-24.795-23.04-66.998-33.207-126.61-17.116 59.977-33.427 102.18-48.86 126.61-15.506 24.43-43.74 52.663-84.845 84.846H59.465z" p-id="1335"></path></svg>